<svg height="511pt" viewBox="0 0 511.99972 511" width="511pt" xmlns="http://www.w3.org/2000/svg"><path d="m442.230469 70.21875-110.207031-17.277344-30.003907-4.703125-29.765625-4.664062-257.363281 257.363281c-9.730469 9.726562-9.730469 25.5 0 35.230469l161.390625 161.390625c9.726562 9.730468 25.5 9.726562 35.230469 0l257.363281-257.363282zm-33.339844 71.664062c-10.582031 10.585938-27.742187 10.585938-38.328125 0-10.582031-10.582031-10.582031-27.742187 0-38.324218 10.585938-10.585938 27.746094-10.585938 38.328125 0 10.582031 10.582031 10.582031 27.742187 0 38.324218zm0 0" fill="#68a1d7"/><path d="m442.230469 70.21875-29.785157-4.667969 17.160157 109.472657c3.027343 19.300781-3.355469 38.886718-17.171875 52.699218l-235.375 235.378906c-9.730469 9.730469-25.503906 9.730469-35.234375 0l34.453125 34.457032c9.730468 9.726562 25.503906 9.726562 35.234375 0l257.363281-257.363282zm0 0" fill="#5b8dbd"/><path d="m171.734375 407.390625-21.21875-21.214844-110.429687-110.433593-25.195313 25.195312c-9.730469 9.726562-9.730469 25.503906 0 35.234375l161.390625 161.386719c9.726562 9.730468 25.5 9.730468 35.230469 0l25.195312-25.191406zm0 0" fill="#4d5894"/><path d="m202.25 437.910156-25.195312 25.191406c-9.726563 9.730469-25.5 9.730469-35.230469 0l34.453125 34.457032c9.730468 9.726562 25.503906 9.726562 35.234375 0l25.191406-25.195313zm0 0" fill="#3e4778"/><path d="m418.445312 1.988281c-39.472656-7.582031-65.523437 14.738281-68.300781 46.199219l-17.023437-2.667969c-4.105469-.644531-7.957032 2.164063-8.601563 6.269531-.644531 4.109376 2.164063 7.960938 6.269531 8.601563l19.691407 3.089844c1.632812 13.171875 6.285156 25.628906 12.703125 36.949219-18.972656 22.496093-2.851563 56.917968 26.480468 56.917968 30.769532 0 46.183594-37.402344 24.484376-59.101562-10.488282-10.488282-26.089844-12.824219-38.855469-7.015625-4.339844-8.019531-7.570313-16.519531-9.21875-25.308594l69.503906 10.898437c2.691406 17.175782 22.289063 142.199219 25.203125 160.769532l-224.140625 224.144531-59.652344-59.652344c-2.9375-2.9375-7.707031-2.9375-10.644531 0-2.9375 2.941407-2.9375 7.707031 0 10.644531l59.648438 59.652344-19.867188 19.867188c-2.875 2.875-6.574219 4.617187-10.566406 5.011718-.570313.054688-1.148438.082032-1.726563.082032-4.644531 0-9.011719-1.808594-12.296875-5.09375l-161.386718-161.386719c-3.285157-3.285156-5.09375-7.648437-5.09375-12.292969 0-.582031.027343-1.15625.085937-1.726562.390625-3.992188 2.132813-7.695313 5.007813-10.566406l19.871093-19.871094 105.109375 105.109375c2.941406 2.941406 7.707032 2.941406 10.644532 0 2.941406-2.9375 2.941406-7.703125 0-10.644531l-105.109376-105.109376 224.140626-224.140624 25.980468 4.074218c4.109375.640625 7.960938-2.164062 8.605469-6.273437.640625-4.105469-2.164063-7.957031-6.273437-8.601563l-29.765626-4.664062c-2.375-.375-4.789062.410156-6.488281 2.113281l-257.363281 257.359375c-6.125 6.128906-9.5 14.277344-9.5 22.941406 0 8.664063 3.375 16.8125 9.5 22.9375l161.390625 161.390625c6.125 6.125 14.273437 9.5 22.9375 9.5s16.8125-3.375 22.941406-9.5l257.363281-257.363281c1.699219-1.699219 2.484376-4.113281 2.113282-6.488281l-12.039063-76.792969c13.089844-1.152344 24.308594-6.117188 32.796875-14.605469 41.554688-41.550781-9.292968-132.359375-78.558594-145.65625zm-46.304687 112.054688c7.453125 9.875 16.355469 18.777343 26.210937 26.210937-16.769531 8.300782-34.511718-9.4375-26.210937-26.210937zm36.097656 14.796875c-9.359375-6.929688-17.714843-15.28125-24.6875-24.679688 15.277344-4.996094 29.675781 9.414063 24.6875 24.679688zm78.121094 8.160156c-6.121094 6.121094-14.511719 9.632812-24.492187 10.320312l-12.265626-78.253906c-.507812-3.230468-3.039062-5.765625-6.269531-6.269531l-78.261719-12.269531c1.859376-26.808594 23.421876-38.960938 50.535157-33.753906 58.972656 11.324218 102.191406 88.789062 70.753906 120.226562zm0 0"/><path d="m287.613281 132.34375c-2.941406-2.941406-7.707031-2.9375-10.644531 0l-141.753906 141.75c-2.9375 2.941406-2.9375 7.707031 0 10.648438 2.941406 2.9375 7.707031 2.9375 10.644531 0l141.753906-141.753907c2.941407-2.9375 2.941407-7.703125 0-10.644531zm0 0"/><path d="m176.675781 315.554688 114.976563-114.980469c2.941406-2.9375 2.941406-7.707031 0-10.644531-2.9375-2.941407-7.703125-2.941407-10.644532 0l-114.980468 114.980468c-2.9375 2.9375-2.9375 7.707032 0 10.644532 2.941406 2.941406 7.707031 2.941406 10.648437 0zm0 0"/><path d="m202.164062 348.570312c5.859376 0 3.527344-1.566406 62.8125-59.695312 2.941407-2.9375 2.941407-7.703125 0-10.644531-2.9375-2.9375-7.707031-2.9375-10.644531 0l-57.488281 57.492187c-2.941406 2.9375-2.941406 7.703125 0 10.644532 1.464844 1.46875 3.394531 2.203124 5.320312 2.203124zm0 0"/><path d="m238.300781 377.179688 57.488281-57.488282c2.941407-2.941406 2.941407-7.707031 0-10.648437-2.9375-2.9375-7.707031-2.9375-10.644531 0l-57.488281 57.492187c-2.941406 2.9375-2.941406 7.707032 0 10.644532 2.9375 2.941406 7.703125 2.941406 10.644531 0zm0 0"/></svg>