<svg xmlns="http://www.w3.org/2000/svg" viewBox="0 0 340.47 254"><defs><style>.cls-1{fill:#ee3d3d;}.cls-2{fill:#fe6969;}</style></defs><title>Fichier 1</title><g id="Calque_2" data-name="Calque 2"><g id="Calque_1-2" data-name="Calque 1"><path class="cls-1" d="M30.35,4.79h280a25.39,25.39,0,0,1,25.36,25.36v193.3a25.39,25.39,0,0,1-25.36,25.36h-280A25.39,25.39,0,0,1,5,223.45V30.15A25.39,25.39,0,0,1,30.35,4.79Z"/><path class="cls-2" d="M194.69,140.58a33,33,0,0,1-46.52,2.2,22.82,22.82,0,0,1-2.2-2.2l-9.38-8.79L10.78,239.62a25.43,25.43,0,0,0,19.57,9.19H310.11a25.4,25.4,0,0,0,19.57-9.19L203.88,131.79Z"/><path d="M310.31,254h-280A30.34,30.34,0,0,1,0,223.65V30.35A30.34,30.34,0,0,1,30.35,0H310.11a30.34,30.34,0,0,1,30.36,30.35v193.3A30.05,30.05,0,0,1,310.31,254ZM30.35,9.79A20.45,20.45,0,0,0,10,30.15v193.3a20.46,20.46,0,0,0,20.37,20.37H310.11a20.45,20.45,0,0,0,20.37-20.37V30.15A20.45,20.45,0,0,0,310.11,9.79Z"/><path d="M170.33,155.36A39.1,39.1,0,0,1,142.58,144L7.39,17.77A4.77,4.77,0,0,1,7,11,30.33,30.33,0,0,1,30.35,0H310.11a30.07,30.07,0,0,1,23.37,11,5.18,5.18,0,0,1-.4,6.79L197.89,144.17A39,39,0,0,1,170.33,155.36ZM18,14l131.4,123a29.24,29.24,0,0,0,21,8.59h.2a29.78,29.78,0,0,0,20.77-8.39l131.39-123A20.11,20.11,0,0,0,310.31,10h-280A18.85,18.85,0,0,0,18,14Z"/><path d="M310.31,254h-280A30,30,0,0,1,7,243a5,5,0,0,1,.6-7L133.39,128.2a4.89,4.89,0,0,1,6.59.2l9.39,8.78a.2.2,0,0,1,.2.21,28,28,0,0,0,39.33,2,19.7,19.7,0,0,0,2-2,.2.2,0,0,1,.2-.21l9.39-8.78a4.89,4.89,0,0,1,6.58-.2L332.88,236a5,5,0,0,1,.6,7A30.3,30.3,0,0,1,310.31,254ZM18.17,240a20.67,20.67,0,0,0,12.18,4H310.11a20.63,20.63,0,0,0,12.18-4L204.08,138.58l-6,5.59a38.15,38.15,0,0,1-55.91,0l-6-5.59Z"/></g></g></svg>